<svg width="16" height="16" viewBox="0 0 16 16" fill="none" xmlns="http://www.w3.org/2000/svg">
<path fill-rule="evenodd" clip-rule="evenodd" d="M4.4975 0.945312H11.5018C14.0525 0.945312 15.4925 2.39206 15.5 4.94281V11.9478C15.5 14.4978 14.0525 15.9453 11.5018 15.9453H4.4975C1.94675 15.9453 0.5 14.4978 0.5 11.9478V4.94281C0.5 2.39206 1.94675 0.945312 4.4975 0.945312ZM8.0368 12.8403C8.36005 12.8403 8.6293 12.6003 8.6593 12.2778V4.63531C8.6893 4.40281 8.57755 4.16956 8.37505 4.04281C8.1643 3.91531 7.9093 3.91531 7.70755 4.04281C7.5043 4.16956 7.39255 4.40281 7.4143 4.63531V12.2778C7.45255 12.6003 7.7218 12.8403 8.0368 12.8403ZM11.4875 12.8403C11.8025 12.8403 12.0718 12.6003 12.11 12.2778V9.81781C12.1318 9.57706 12.02 9.35281 11.8168 9.22531C11.615 9.09781 11.36 9.09781 11.15 9.22531C10.9468 9.35281 10.835 9.57706 10.865 9.81781V12.2778C10.8951 12.6003 11.1643 12.8403 11.4875 12.8403ZM5.16427 12.2778C5.13427 12.6003 4.86502 12.8403 4.54177 12.8403C4.21927 12.8403 3.94927 12.6003 3.92002 12.2778V7.09531C3.89752 6.86206 4.00927 6.63031 4.21252 6.50281C4.41427 6.37531 4.67002 6.37531 4.87252 6.50281C5.07427 6.63031 5.18752 6.86206 5.16427 7.09531V12.2778Z" fill="#A7A7A7"/>
</svg>
