<svg width="16" height="16" viewBox="0 0 16 16" fill="none" xmlns="http://www.w3.org/2000/svg">
<path fill-rule="evenodd" clip-rule="evenodd" d="M0.5 8.45658C0.5 4.50565 3.6575 0.945312 8.015 0.945312C12.275 0.945312 15.5 4.43805 15.5 8.43405C15.5 13.0685 11.72 15.9453 8 15.9453C6.77 15.9453 5.405 15.6148 4.31 14.9689C3.9275 14.736 3.605 14.5632 3.1925 14.6984L1.6775 15.1491C1.295 15.2693 0.95 14.9689 1.0625 14.5632L1.565 12.8807C1.6475 12.6479 1.6325 12.4 1.5125 12.2047C0.8675 11.0179 0.5 9.71847 0.5 8.45658ZM7.02491 8.45658C7.02491 8.98988 7.45241 9.41802 7.98491 9.42554C8.51741 9.42554 8.94491 8.98988 8.94491 8.46409C8.94491 7.93079 8.51741 7.50265 7.98491 7.50265C7.45991 7.49514 7.02491 7.93079 7.02491 8.45658ZM10.4825 8.46409C10.4825 8.98988 10.91 9.42554 11.4425 9.42554C11.975 9.42554 12.4025 8.98988 12.4025 8.46409C12.4025 7.93079 11.975 7.50265 11.4425 7.50265C10.91 7.50265 10.4825 7.93079 10.4825 8.46409ZM4.52758 9.42554C4.00258 9.42554 3.56758 8.98989 3.56758 8.4641C3.56758 7.9308 3.99508 7.50266 4.52758 7.50266C5.06008 7.50266 5.48758 7.9308 5.48758 8.4641C5.48758 8.98989 5.06008 9.41803 4.52758 9.42554Z" fill="#A7A7A7"/>
</svg>
