<svg width="146" height="146" viewBox="0 0 146 146" fill="none" xmlns="http://www.w3.org/2000/svg">
<path d="M72.6999 35.5996C94.6999 35.8996 113 44.2996 127.5 60.9996C129.5 63.2996 129.2 66.3996 127 68.2996C124.9 70.0996 121.8 69.8996 119.9 67.5996C114.6 61.4996 108.6 56.4996 101.4 52.6996C78.9999 40.9996 52.1999 43.8996 32.9999 60.1996C30.2999 62.3996 27.9999 65.0996 25.5999 67.5996C23.4999 69.7996 20.4999 70.1996 18.2999 68.2996C16.0999 66.3996 15.9999 63.2996 17.8999 60.9996C29.9999 46.9996 45.1999 38.6996 63.5999 36.0996C64.9999 35.8996 66.4999 35.6996 67.8999 35.6996C69.4999 35.5996 71.0999 35.5996 72.6999 35.5996Z" fill="#263238"/>
<path d="M74.4994 56C88.3994 56.4 101.499 62.3 111.699 74.2C113.699 76.5 113.499 79.6 111.199 81.5C109.099 83.3 105.999 83.1 103.999 80.8C98.6994 74.6 92.1994 70 84.2994 67.9C68.0994 63.5 54.1994 67.5 42.4994 79.5C42.0994 79.9 41.6994 80.4 41.1994 80.9C39.2994 83.1 36.0994 83.4 33.9994 81.6C31.7994 79.7 31.4994 76.6 33.4994 74.3C38.0994 68.9 43.4994 64.6 49.8994 61.5C57.0994 57.8 64.6994 56 74.4994 56Z" fill="#263238"/>
<path d="M97.2992 90.7996C97.2992 92.8996 95.9992 94.7996 94.0992 95.5996C92.0992 96.3996 89.8992 95.8996 88.3992 94.1996C86.1992 91.6996 83.6992 89.6996 80.5992 88.3996C72.2992 84.7996 63.0992 86.9996 56.8992 93.9996C55.3992 95.6996 53.5992 96.2996 51.4992 95.5996C49.4992 94.9996 48.2992 93.4996 47.9992 91.3996C47.7992 89.8996 48.1992 88.5996 49.1992 87.3996C59.7992 74.5996 79.3992 72.7996 92.1992 83.4996C93.6992 84.6996 94.9992 86.0996 96.1992 87.4996C96.8992 88.3996 97.1992 89.4996 97.6992 90.5996C97.4992 90.6996 97.3992 90.6996 97.2992 90.7996Z" fill="#263238"/>
<path d="M72.7 117.5C67 117.5 62.5 113 62.5 107.3C62.5 101.7 67.1 97.0996 72.7 97.0996C78.3 97.0996 82.9 101.7 82.9 107.3C82.8 113 78.3 117.5 72.7 117.5Z" fill="#263238"/>
<path d="M72.7 0C32.6 0 0 32.6 0 72.7C0 112.8 32.6 145.4 72.7 145.4C112.8 145.4 145.4 112.8 145.4 72.7C145.4 32.6 112.8 0 72.7 0ZM10 72.7C10 38.1 38.1 10 72.7 10C89 10 103.9 16.3 115.1 26.5L26.5 115.1C16.3 103.9 10 89 10 72.7ZM72.7 135.4C58 135.4 44.5 130.3 33.8 121.9L121.8 33.9C130.3 44.6 135.3 58.1 135.3 72.8C135.4 107.3 107.3 135.4 72.7 135.4Z" fill="#BFBFBF"/>
</svg>
