<svg width="16" height="18" viewBox="0 0 16 18" fill="none" xmlns="http://www.w3.org/2000/svg">
<path d="M14.875 2.75098H11.125V1.81348C11.125 1.39908 10.9604 1.00165 10.6674 0.708622C10.3743 0.415597 9.9769 0.250977 9.5625 0.250977H6.4375C6.0231 0.250977 5.62567 0.415597 5.33265 0.708622C5.03962 1.00165 4.875 1.39908 4.875 1.81348V2.75098H1.125C0.95924 2.75098 0.800269 2.81682 0.683058 2.93403C0.565848 3.05124 0.5 3.21022 0.5 3.37598C0.5 3.54174 0.565848 3.70071 0.683058 3.81792C0.800269 3.93513 0.95924 4.00098 1.125 4.00098H1.78906L2.53125 15.9119C2.58672 16.9607 3.39062 17.751 4.40625 17.751H11.5937C12.6145 17.751 13.4023 16.9783 13.4687 15.915L14.2109 4.00098H14.875C15.0408 4.00098 15.1997 3.93513 15.3169 3.81792C15.4342 3.70071 15.5 3.54174 15.5 3.37598C15.5 3.21022 15.4342 3.05124 15.3169 2.93403C15.1997 2.81682 15.0408 2.75098 14.875 2.75098ZM5.52227 15.251H5.5C5.33803 15.2511 5.18234 15.1883 5.06575 15.0759C4.94916 14.9634 4.88077 14.8101 4.875 14.6482L4.5625 5.89824C4.55659 5.73248 4.61678 5.57116 4.72981 5.44978C4.84285 5.32839 4.99947 5.25688 5.16523 5.25098C5.33099 5.24507 5.49231 5.30525 5.6137 5.41829C5.73508 5.53132 5.80659 5.68795 5.8125 5.85371L6.125 14.6037C6.12798 14.6858 6.11474 14.7677 6.08605 14.8446C6.05736 14.9216 6.01378 14.9922 5.95781 15.0523C5.90183 15.1124 5.83455 15.1609 5.75981 15.195C5.68508 15.2291 5.60436 15.2481 5.52227 15.251ZM8.625 14.626C8.625 14.7917 8.55915 14.9507 8.44194 15.0679C8.32473 15.1851 8.16576 15.251 8 15.251C7.83424 15.251 7.67527 15.1851 7.55806 15.0679C7.44085 14.9507 7.375 14.7917 7.375 14.626V5.87598C7.375 5.71022 7.44085 5.55124 7.55806 5.43403C7.67527 5.31682 7.83424 5.25098 8 5.25098C8.16576 5.25098 8.32473 5.31682 8.44194 5.43403C8.55915 5.55124 8.625 5.71022 8.625 5.87598V14.626ZM9.875 2.75098H6.125V1.81348C6.12453 1.77231 6.13229 1.73146 6.14783 1.69333C6.16337 1.65521 6.18637 1.62057 6.21548 1.59146C6.24459 1.56234 6.27923 1.53934 6.31736 1.5238C6.35548 1.50827 6.39633 1.50051 6.4375 1.50098H9.5625C9.60367 1.50051 9.64452 1.50827 9.68264 1.5238C9.72077 1.53934 9.75541 1.56234 9.78452 1.59146C9.81363 1.62057 9.83663 1.65521 9.85217 1.69333C9.86771 1.73146 9.87547 1.77231 9.875 1.81348V2.75098ZM11.125 14.6482C11.1192 14.8101 11.0508 14.9634 10.9343 15.0759C10.8177 15.1883 10.662 15.2511 10.5 15.251H10.4773C10.3953 15.2481 10.3146 15.229 10.2399 15.1949C10.1652 15.1608 10.098 15.1123 10.0421 15.0521C9.98612 14.992 9.94257 14.9215 9.91391 14.8446C9.88524 14.7676 9.87202 14.6858 9.875 14.6037L10.1875 5.85371C10.1904 5.77163 10.2095 5.69094 10.2436 5.61623C10.2777 5.54152 10.3262 5.47426 10.3863 5.41829C10.4464 5.36232 10.5169 5.31874 10.5939 5.29003C10.6708 5.26132 10.7527 5.24805 10.8348 5.25098C10.9168 5.2539 10.9975 5.27296 11.0722 5.30707C11.147 5.34118 11.2142 5.38967 11.2702 5.44978C11.3262 5.50988 11.3697 5.58042 11.3984 5.65737C11.4272 5.73432 11.4404 5.81617 11.4375 5.89824L11.125 14.6482Z" fill="#F94141"/>
</svg>
