<svg width="14" height="16" viewBox="0 0 14 16" fill="none" xmlns="http://www.w3.org/2000/svg">
<path fill-rule="evenodd" clip-rule="evenodd" d="M3.8575 0.945312H10.1432C12.46 0.945312 13.75 2.28031 13.75 4.56781V12.3153C13.75 14.6403 12.46 15.9453 10.1432 15.9453H3.8575C1.5775 15.9453 0.25 14.6403 0.25 12.3153V4.56781C0.25 2.28031 1.5775 0.945312 3.8575 0.945312ZM4.06011 4.44032V4.43282H6.30185C6.6251 4.43282 6.8876 4.69532 6.8876 5.01707C6.8876 5.34782 6.6251 5.61032 6.30185 5.61032H4.06011C3.73686 5.61032 3.47511 5.34782 3.47511 5.02532C3.47511 4.70282 3.73686 4.44032 4.06011 4.44032ZM4.06011 9.00031H9.9401C10.2626 9.00031 10.5251 8.73781 10.5251 8.41531C10.5251 8.09281 10.2626 7.82956 9.9401 7.82956H4.06011C3.73686 7.82956 3.47511 8.09281 3.47511 8.41531C3.47511 8.73781 3.73686 9.00031 4.06011 9.00031ZM4.06002 12.4278H9.94002C10.2393 12.3978 10.465 12.1421 10.465 11.8428C10.465 11.5353 10.2393 11.2803 9.94002 11.2503H4.06002C3.83502 11.2278 3.61752 11.3328 3.49752 11.5278C3.37752 11.7153 3.37752 11.9628 3.49752 12.1578C3.61752 12.3453 3.83502 12.4578 4.06002 12.4278Z" fill="#A7A7A7"/>
</svg>
