<svg width="18" height="15" viewBox="0 0 18 15" fill="none" xmlns="http://www.w3.org/2000/svg">
<path d="M17.4375 4.63184C17.4368 4.0353 17.1996 3.46338 16.7778 3.04156C16.356 2.61975 15.784 2.38249 15.1875 2.38184H13.5V1.81934C13.4995 1.37193 13.3216 0.942974 13.0052 0.626607C12.6889 0.31024 12.2599 0.132301 11.8125 0.131836H6.1875C5.74009 0.132301 5.31114 0.31024 4.99477 0.626607C4.6784 0.942974 4.50047 1.37193 4.5 1.81934V2.38184H2.8125C2.21596 2.38249 1.64404 2.61975 1.22223 3.04156C0.800413 3.46338 0.563151 4.0353 0.5625 4.63184V6.31934H17.4375V4.63184ZM12.375 2.38184H5.625V1.81934C5.625 1.67015 5.68426 1.52708 5.78975 1.42159C5.89524 1.3161 6.03832 1.25684 6.1875 1.25684H11.8125C11.9617 1.25684 12.1048 1.3161 12.2102 1.42159C12.3157 1.52708 12.375 1.67015 12.375 1.81934V2.38184ZM11.8125 7.72558C11.8125 7.94936 11.7236 8.16397 11.5654 8.32221C11.4071 8.48044 11.1925 8.56933 10.9688 8.56933H7.03125C6.80747 8.56933 6.59286 8.48044 6.43463 8.32221C6.27639 8.16397 6.1875 7.94936 6.1875 7.72558V7.58496C6.1875 7.54766 6.17268 7.5119 6.14631 7.48552C6.11994 7.45915 6.08417 7.44433 6.04688 7.44433H0.5625V12.5068C0.5625 13.1036 0.799553 13.6759 1.22151 14.0978C1.64347 14.5198 2.21576 14.7568 2.8125 14.7568H15.1875C15.7842 14.7568 16.3565 14.5198 16.7785 14.0978C17.2004 13.6759 17.4375 13.1036 17.4375 12.5068V7.44433H11.9531C11.9158 7.44433 11.8801 7.45915 11.8537 7.48552C11.8273 7.5119 11.8125 7.54766 11.8125 7.58496V7.72558Z" fill="#A7A7A7"/>
</svg>
