<svg width="90" height="74" viewBox="0 0 90 74" fill="none" xmlns="http://www.w3.org/2000/svg">
<path d="M72.7828 11.5115C70.1841 9.26497 67.0754 8.30564 63.6752 8.2935C53.5112 8.26921 43.3593 8.28136 33.1952 8.28136C32.8795 8.28136 32.5638 8.30564 32.1509 8.32993C31.908 10.3457 31.6652 12.3373 31.4102 14.5109C32.1266 14.5109 32.6245 14.5109 33.1345 14.5109C43.0193 14.5109 52.8918 14.4988 62.7766 14.5231C64.8652 14.5231 66.9175 14.7295 68.6054 16.1624C69.7955 17.1703 69.9655 18.7004 69.0304 19.9755C68.6783 20.4491 68.2897 20.9105 67.8282 21.2869C64.3674 24.1528 60.2993 24.0192 56.1706 23.6306C56.1099 23.6306 56.0613 23.5335 56.0006 23.4849C56.1949 21.7848 56.3892 20.109 56.6077 18.2997C54.6284 18.2997 52.8068 18.2632 50.9853 18.3361C50.6939 18.3482 50.2567 18.8704 50.196 19.2104C49.9653 20.4126 49.8681 21.6512 49.7224 22.8656C49.2367 26.8972 48.7631 30.9167 48.2774 34.9483C48.1559 36.0048 48.0223 37.0612 47.8645 38.3363C49.6131 38.3363 51.1189 38.3363 52.6247 38.3363C54.1548 38.3363 54.2276 38.2391 54.3976 36.6726C54.6284 34.5111 54.9077 32.3496 55.187 30.0302C57.057 30.0302 58.8057 30.0545 60.5543 30.0302C65.1203 29.9695 69.2247 28.6216 72.5885 25.4278C76.9722 21.2991 77.0451 15.2031 72.7828 11.5115Z" fill="#18DC14"/>
<path d="M37.1781 23.2911C36.8867 24.9669 36.7895 26.7641 36.1095 28.2699C34.1666 32.5686 29.5642 33.0422 25.909 31.8886C24.5004 31.4393 23.6139 30.2007 23.5775 28.5977C23.5532 27.687 23.5654 26.7641 23.6868 25.8533C24.0147 23.2911 24.3668 20.7288 24.719 18.1665H24.6947C24.9011 16.5879 25.1197 14.9971 25.3383 13.3456C26.7834 13.3456 28.1434 13.3456 29.7585 13.3456C27.7791 8.80397 25.909 4.51735 23.9297 0C20.5174 4.49306 17.2386 8.79183 13.7656 13.3578C15.6479 13.3578 17.2144 13.3578 18.8537 13.3578C18.8537 13.7828 18.878 14.0621 18.8537 14.3171C18.3073 18.5794 17.7851 22.8539 17.2265 27.1162H17.2629C16.8865 31.5607 19.6552 36.1995 23.7354 37.7782C26.1033 38.6889 28.5077 38.5796 30.9121 38.4582C35.223 38.2396 38.4167 36.0538 40.8454 32.6051C42.3026 30.5407 42.8612 28.1849 43.1041 25.6833C43.3348 23.2546 43.7963 20.8381 44.1606 18.3608C41.9626 18.3608 39.959 18.3608 37.8703 18.3608C37.6274 20.0609 37.4574 21.6881 37.1781 23.2911Z" fill="#18DC14"/>
<path d="M8.49438 60.1415C6.33844 60.1415 4.65681 59.545 3.44949 58.3521C2.25654 57.1592 1.66007 55.456 1.66007 53.2425V44.7913H5.15268V53.1132C5.15268 55.8153 6.27376 57.1663 8.51593 57.1663C9.60827 57.1663 10.4419 56.8429 11.0168 56.1962C11.5917 55.535 11.8792 54.5074 11.8792 53.1132V44.7913H15.3287V53.2425C15.3287 55.456 14.725 57.1592 13.5177 58.3521C12.3247 59.545 10.6503 60.1415 8.49438 60.1415ZM25.3987 48.1114C26.4767 48.1114 27.4541 48.3629 28.3308 48.866C29.2219 49.3547 29.919 50.0518 30.4221 50.9573C30.9251 51.8484 31.1766 52.8904 31.1766 54.0834C31.1766 55.2763 30.9251 56.3255 30.4221 57.231C29.919 58.1221 29.2219 58.8192 28.3308 59.3223C27.4541 59.8109 26.4767 60.0553 25.3987 60.0553C23.9183 60.0553 22.7541 59.5882 21.9061 58.6539V64.0653H18.5429V48.2839H21.7552V49.6206C22.5888 48.6145 23.8033 48.1114 25.3987 48.1114ZM24.8166 57.2957C25.679 57.2957 26.3833 57.0082 26.9295 56.4333C27.49 55.844 27.7703 55.0607 27.7703 54.0834C27.7703 53.106 27.49 52.3299 26.9295 51.7549C26.3833 51.1657 25.679 50.871 24.8166 50.871C23.9543 50.871 23.2428 51.1657 22.6823 51.7549C22.1361 52.3299 21.863 53.106 21.863 54.0834C21.863 55.0607 22.1361 55.844 22.6823 56.4333C23.2428 57.0082 23.9543 57.2957 24.8166 57.2957ZM51.7395 48.2839L47.5355 59.8828H44.3016L41.6929 52.682L38.998 59.8828H35.7641L31.5815 48.2839H34.7508L37.4888 56.1315L40.3346 48.2839H43.1805L45.9401 56.1315L48.7643 48.2839H51.7395ZM58.5065 60.0553C57.2848 60.0553 56.1852 59.8038 55.2079 59.3007C54.2449 58.7833 53.4903 58.0718 52.9441 57.1663C52.398 56.2608 52.1249 55.2332 52.1249 54.0834C52.1249 52.9335 52.398 51.9059 52.9441 51.0004C53.4903 50.0949 54.2449 49.3906 55.2079 48.8876C56.1852 48.3701 57.2848 48.1114 58.5065 48.1114C59.7281 48.1114 60.8205 48.3701 61.7835 48.8876C62.7465 49.3906 63.501 50.0949 64.0472 51.0004C64.5934 51.9059 64.8665 52.9335 64.8665 54.0834C64.8665 55.2332 64.5934 56.2608 64.0472 57.1663C63.501 58.0718 62.7465 58.7833 61.7835 59.3007C60.8205 59.8038 59.7281 60.0553 58.5065 60.0553ZM58.5065 57.2957C59.3688 57.2957 60.0731 57.0082 60.6193 56.4333C61.1798 55.844 61.4601 55.0607 61.4601 54.0834C61.4601 53.106 61.1798 52.3299 60.6193 51.7549C60.0731 51.1657 59.3688 50.871 58.5065 50.871C57.6441 50.871 56.9326 51.1657 56.3721 51.7549C55.8115 52.3299 55.5313 53.106 55.5313 54.0834C55.5313 55.0607 55.8115 55.844 56.3721 56.4333C56.9326 57.0082 57.6441 57.2957 58.5065 57.2957ZM70.3269 49.8146C70.7293 49.2541 71.2683 48.8301 71.9438 48.5426C72.6337 48.2551 73.4242 48.1114 74.3153 48.1114V51.216C73.9416 51.1872 73.6901 51.1728 73.5608 51.1728C72.5978 51.1728 71.8432 51.4459 71.297 51.9921C70.7509 52.5239 70.4778 53.3288 70.4778 54.4067V59.8828H67.1145V48.2839H70.3269V49.8146ZM81.2953 55.3338L79.6784 56.9292V59.8828H76.3151V43.8858H79.6784V52.9407L84.5939 48.2839H88.604L83.7747 53.1994L89.0351 59.8828H84.9604L81.2953 55.3338Z" fill="white"/>
<path d="M39.2116 63.7936C40.903 63.7936 41.9293 64.6488 41.9293 66.0742C41.9293 67.4901 40.903 68.3453 39.2116 68.3453H37.4251V70.4453H36.7219V63.7936H39.2116ZM39.1926 67.7276C40.5229 67.7276 41.2261 67.1195 41.2261 66.0742C41.2261 65.0099 40.5229 64.4018 39.1926 64.4018H37.4251V67.7276H39.1926ZM45.3224 70.4928C43.859 70.4928 42.7757 69.4286 42.7757 67.9462C42.7757 66.4638 43.859 65.409 45.3224 65.409C46.7857 65.409 47.8595 66.4638 47.8595 67.9462C47.8595 69.4286 46.7857 70.4928 45.3224 70.4928ZM45.3224 69.8942C46.3866 69.8942 47.1753 69.115 47.1753 67.9462C47.1753 66.7774 46.3866 65.9982 45.3224 65.9982C44.2581 65.9982 43.4599 66.7774 43.4599 67.9462C43.4599 69.115 44.2581 69.8942 45.3224 69.8942ZM55.8159 65.447H56.4336L54.5426 70.4453H53.9059L52.3285 66.3498L50.7511 70.4453H50.1145L48.233 65.447H48.8792L50.4471 69.6946L52.053 65.447H52.6326L54.229 69.6946L55.8159 65.447ZM61.6719 67.9462C61.6719 68.0032 61.6624 68.0792 61.6624 68.1552H57.4813C57.5573 69.2005 58.3555 69.8942 59.4483 69.8942C60.0565 69.8942 60.5981 69.6756 60.9782 69.2385L61.3583 69.6756C60.9117 70.2078 60.218 70.4928 59.4293 70.4928C57.8709 70.4928 56.8066 69.4286 56.8066 67.9462C56.8066 66.4638 57.8424 65.409 59.2488 65.409C60.6551 65.409 61.6719 66.4448 61.6719 67.9462ZM59.2488 65.9887C58.2795 65.9887 57.5668 66.6729 57.4813 67.6516H61.0257C60.9402 66.6729 60.2275 65.9887 59.2488 65.9887ZM63.6913 66.4258C64.0049 65.7606 64.6415 65.409 65.5633 65.409V66.0647C65.5062 66.0647 65.4492 66.0552 65.4017 66.0552C64.3564 66.0552 63.7198 66.7204 63.7198 67.8987V70.4453H63.0451V65.447H63.6913V66.4258ZM67.8671 70.4453V64.4018H65.5295V63.7936H70.9078V64.4018H68.5702V70.4453H67.8671ZM73.412 70.4928C71.9487 70.4928 70.8654 69.4286 70.8654 67.9462C70.8654 66.4638 71.9487 65.409 73.412 65.409C74.8754 65.409 75.9492 66.4638 75.9492 67.9462C75.9492 69.4286 74.8754 70.4928 73.412 70.4928ZM73.412 69.8942C74.4763 69.8942 75.265 69.115 75.265 67.9462C75.265 66.7774 74.4763 65.9982 73.412 65.9982C72.3478 65.9982 71.5496 66.7774 71.5496 67.9462C71.5496 69.115 72.3478 69.8942 73.412 69.8942ZM79.3696 70.4928C77.9062 70.4928 76.8229 69.4286 76.8229 67.9462C76.8229 66.4638 77.9062 65.409 79.3696 65.409C80.833 65.409 81.9067 66.4638 81.9067 67.9462C81.9067 69.4286 80.833 70.4928 79.3696 70.4928ZM79.3696 69.8942C80.4339 69.8942 81.2226 69.115 81.2226 67.9462C81.2226 66.7774 80.4339 65.9982 79.3696 65.9982C78.3053 65.9982 77.5071 66.7774 77.5071 67.9462C77.5071 69.115 78.3053 69.8942 79.3696 69.8942ZM83.2841 70.4453V63.3945H83.9588V70.4453H83.2841ZM87.1759 70.4928C86.3492 70.4928 85.551 70.2268 85.1424 69.8752L85.4465 69.343C85.8456 69.6566 86.5202 69.9037 87.2234 69.9037C88.1737 69.9037 88.5633 69.5806 88.5633 69.0865C88.5633 67.7846 85.3229 68.8109 85.3229 66.8344C85.3229 66.0172 86.0261 65.409 87.2994 65.409C87.9456 65.409 88.6488 65.5896 89.0669 65.8747L88.7723 66.4163C88.3352 66.1122 87.8126 65.9887 87.2994 65.9887C86.3967 65.9887 85.9976 66.3403 85.9976 66.8154C85.9976 68.1647 89.2379 67.148 89.2379 69.0675C89.2379 69.9322 88.4777 70.4928 87.1759 70.4928Z" fill="white"/>
</svg>
