<svg width="16" height="15" viewBox="0 0 16 15" fill="none" xmlns="http://www.w3.org/2000/svg">
<path fill-rule="evenodd" clip-rule="evenodd" d="M12.3267 4.73166H15.5C15.5 2.18376 13.9733 0.695312 11.3867 0.695312H4.61333C2.02667 0.695312 0.5 2.18376 0.5 4.69916V10.1915C0.5 12.7069 2.02667 14.1953 4.61333 14.1953H11.3867C13.9733 14.1953 15.5 12.7069 15.5 10.1915V9.95747H12.3267C10.8539 9.95747 9.66 8.79345 9.66 7.35757C9.66 5.92168 10.8539 4.75766 12.3267 4.75766V4.73166ZM12.3265 5.84963H14.9399C15.2492 5.84963 15.4999 6.09407 15.4999 6.39561V8.29354C15.4963 8.59361 15.2477 8.83601 14.9399 8.83952H12.3865C11.641 8.8493 10.989 8.3516 10.8199 7.64356C10.7352 7.20404 10.8541 6.75049 11.1447 6.40448C11.4353 6.05847 11.8679 5.85537 12.3265 5.84963ZM12.4399 7.84506H12.6866C13.0032 7.84506 13.2599 7.5948 13.2599 7.28608C13.2599 6.97736 13.0032 6.7271 12.6866 6.7271H12.4399C12.2884 6.72536 12.1426 6.7828 12.0349 6.8866C11.9272 6.9904 11.8665 7.13192 11.8666 7.27958C11.8665 7.58936 12.1222 7.8415 12.4399 7.84506ZM4.05343 4.73167H8.28677C8.60341 4.73167 8.8601 4.48141 8.8601 4.17269C8.8601 3.86398 8.60341 3.61371 8.28677 3.61371H4.05343C3.73938 3.61369 3.48375 3.86002 3.4801 4.16619C3.48008 4.47598 3.73572 4.72811 4.05343 4.73167Z" fill="#A7A7A7"/>
</svg>
